<svg width="52" height="52" viewBox="0 0 52 52" fill="currentColor" xmlns="http://www.w3.org/2000/svg">
<path fill-rule="evenodd" clip-rule="evenodd" d="M4.3125 2.5C3.8318 2.5 3.37078 2.69096 3.03087 3.03087C2.69096 3.37078 2.5 3.8318 2.5 4.3125V12.25H12.25V2.5H4.3125ZM4.3125 0C3.16875 0 2.07185 0.454353 1.2631 1.2631C0.454353 2.07185 0 3.16875 0 4.3125V47.1875C0 48.3312 0.454352 49.4282 1.2631 50.2369C2.07185 51.0457 3.16876 51.5 4.3125 51.5H47.1875C48.3312 51.5 49.4281 51.0457 50.2369 50.2369C51.0457 49.4281 51.5 48.3312 51.5 47.1875V4.3125C51.5 3.16876 51.0457 2.07185 50.2369 1.2631C49.4282 0.454352 48.3312 0 47.1875 0H4.3125ZM14.75 2.5V12.25H49V4.3125C49 3.83179 48.809 3.37078 48.4691 3.03087C48.1292 2.69096 47.6682 2.5 47.1875 2.5H14.75ZM49 14.75H2.5V47.1875C2.5 47.6682 2.69096 48.1292 3.03087 48.4691C3.37078 48.809 3.83179 49 4.3125 49H47.1875C47.6682 49 48.1292 48.809 48.4691 48.4691C48.809 48.1292 49 47.6682 49 47.1875V14.75ZM32.7589 27.9286C33.247 28.4168 33.247 29.2082 32.7589 29.6964L23.5714 38.8839C23.0832 39.372 22.2918 39.372 21.8036 38.8839L17.2099 34.2901C16.7217 33.802 16.7217 33.0105 17.2099 32.5224C17.698 32.0342 18.4895 32.0342 18.9776 32.5224L22.6875 36.2322L30.9911 27.9286C31.4793 27.4405 32.2707 27.4405 32.7589 27.9286Z" />
</svg>
