<svg xmlns="http://www.w3.org/2000/svg" width="52" height="52" fill="currentColor" viewBox="0 0 52 52"><path fill-rule="evenodd" d="M9 3.555a12.139 12.139 0 1 1 17.167 17.167A12.139 12.139 0 0 1 9 3.555M17.583 2.5a9.639 9.639 0 1 0 0 19.278 9.639 9.639 0 0 0 0-19.278m17.845-1.206a1.25 1.25 0 0 1 1.52-.901 12.139 12.139 0 0 1 0 23.52 1.25 1.25 0 0 1-.62-2.423 9.639 9.639 0 0 0 0-18.675 1.25 1.25 0 0 1-.9-1.521m-23.29 33.873A9.64 9.64 0 0 0 2.5 44.806v5.444a1.25 1.25 0 1 1-2.5 0v-5.444a12.14 12.14 0 0 1 12.139-12.14h10.889a12.14 12.14 0 0 1 12.139 12.14v5.444a1.25 1.25 0 0 1-2.5 0v-5.444a9.64 9.64 0 0 0-9.64-9.64zm28.735-1.154a1.25 1.25 0 0 1 1.523-.898A12.14 12.14 0 0 1 51.5 44.798v5.452a1.25 1.25 0 1 1-2.5 0v-5.441a9.64 9.64 0 0 0-7.23-9.274 1.25 1.25 0 0 1-.897-1.522" clip-rule="evenodd"/></svg>